<?xml version="1.0" encoding="utf-8"?>
<svg viewBox="0 0 500 500" xmlns="http://www.w3.org/2000/svg">
  <g id="SVGRepo_bgCarrier" stroke-width="0" transform="matrix(1, 0, 0, 1, 143.02224731445312, 48.19258880615234)"/>
  <g id="SVGRepo_tracerCarrier" stroke-linecap="round" stroke-linejoin="round" transform="matrix(1, 0, 0, 1, 143.02224731445312, 48.19258880615234)"/>
  <g id="g-4" stroke-width="0" transform="matrix(1, 0, 0, 1, 314.1051940917968, 98.30779266357422)"/>
  <g id="g-5" stroke-linecap="round" stroke-linejoin="round" transform="matrix(1, 0, 0, 1, 314.1051940917968, 98.30779266357422)"/>
  <g id="g-7" stroke-width="0" transform="matrix(1, 0, 0, 1, 304.4974060058593, 77.05557250976562)"/>
  <g id="g-8" stroke-linecap="round" stroke-linejoin="round" transform="matrix(1, 0, 0, 1, 304.4974060058593, 77.05557250976562)"/>
  <g id="g-9" transform="matrix(0.6110729575157166, 0, 0, 0.604403018951416, 277.8980407714843, 89.66995239257812)" style="">
    <path d="M64.8 120.71c3.68 0 32.11-24.18 48.7-44.07c15.96-19.14 10.2-41.74 6.69-48.03c-4.15-7.43-56.94 17.01-56.94 17.01S14.07 17.99 10.39 23.99C5.4 32.13-1.59 53.54 12.52 73.45C27.5 94.6 60.85 120.71 64.8 120.71z" fill="#db0a28"/>
    <path d="M64.55 114.2s52.26-38.68 56.75-62.3c4.25-22.37-4.45-33.22-15.16-38.45C78.99.19 65.29 26.21 64 26.21S49.95.14 23.7 11.42C9.24 17.63 3.18 34.53 8.91 53.57c8.41 27.94 55.64 60.63 55.64 60.63z" fill="#ff262e"/>
  </g>
  <g id="g-3" stroke-width="0" transform="matrix(5.274687767028809, 0, 0, 5.326786041259766, 178.17958068847656, 119.2963638305664)" style=""/>
  <g id="g-6" stroke-linecap="round" stroke-linejoin="round" transform="matrix(5.274687767028809, 0, 0, 5.326786041259766, 178.17958068847656, 119.2963638305664)" style=""/>
  <g id="g-10" transform="matrix(3.4433629512786865, 0, 0, 3.906524181365967, 176.42364501953125, 94.23383331298828)" style="">
    <title>860</title>
    <g stroke="none" stroke-width="1" fill="none" fill-rule="evenodd">
      <g transform="translate(1.000000, 0.000000)" fill="#434343">
        <path d="M4.428,13.572 L0.629,12.142 L0.145,13.315 C0.145,13.315 -0.318,15.213 1.342,15.838 C3.004,16.465 3.961,14.751 3.961,14.751 L4.428,13.572 L4.428,13.572 Z" class="si-glyph-fill" style="fill: rgb(22, 26, 172);"/>
        <path d="M7.207,3.193 C5.565,2.534 3.26,3.979 2.463,5.8 C2.135,6.55 1.986,7.359 1.862,8.157 C1.803,8.538 1.761,8.929 1.686,9.309 C1.59,9.786 1.447,10.245 1.305,10.708 C1.108,11.351 1.325,11.459 1.924,11.569 L4.022,12.361 C4.236,12.463 4.654,12.72 4.869,12.48 C5.059,12.265 5.021,11.873 5.148,11.618 C5.312,11.287 5.496,10.95 5.699,10.638 C6.148,9.94 7,9.43 7.577,8.828 C8.292,8.08 8.687,7.33 8.905,6.338 C9.195,5.017 8.528,3.722 7.207,3.193 L7.207,3.193 Z" class="si-glyph-fill" style="fill: rgb(22, 26, 172);"/>
        <g transform="translate(8.000000, 0.000000)">
          <path d="M0.977,9.289 L4.632,10.732 C4.632,10.732 3.878,13.685 1.646,12.826 C-0.586,11.965 0.977,9.289 0.977,9.289 L0.977,9.289 Z" class="si-glyph-fill" style="fill: rgb(22, 26, 172);"/>
          <path d="M6.19,0.217 C7.75,0.797 8.378,3.255 7.721,5.024 C7.45,5.751 7.018,6.403 6.575,7.038 C6.363,7.34 6.133,7.636 5.932,7.949 C5.685,8.339 5.479,8.75 5.271,9.16 C4.98,9.73 4.759,9.665 4.275,9.366 L2.31,8.593 C2.097,8.529 1.641,8.441 1.653,8.142 C1.664,7.872 1.949,7.622 2.031,7.368 C2.137,7.035 2.234,6.683 2.3,6.34 C2.452,5.572 2.204,4.679 2.208,3.899 C2.208,2.93 2.435,2.159 2.94,1.334 C3.617,0.228 4.932,-0.248 6.19,0.217 L6.19,0.217 Z" class="si-glyph-fill" style="fill: rgb(22, 26, 172);"/>
        </g>
      </g>
    </g>
  </g>
  <g id="g-11" transform="matrix(3.4433629512786865, 0, 0, 3.906524181365967, 173.96717834472656, 93.3129653930664)" style="">
    <title>860</title>
    <g stroke="none" stroke-width="1" fill="none" fill-rule="evenodd">
      <g transform="translate(1.000000, 0.000000)" fill="#434343">
        <path d="M4.428,13.572 L0.629,12.142 L0.145,13.315 C0.145,13.315 -0.318,15.213 1.342,15.838 C3.004,16.465 3.961,14.751 3.961,14.751 L4.428,13.572 L4.428,13.572 Z" class="si-glyph-fill" style="fill: rgb(29, 35, 245);"/>
        <path d="M7.207,3.193 C5.565,2.534 3.26,3.979 2.463,5.8 C2.135,6.55 1.986,7.359 1.862,8.157 C1.803,8.538 1.761,8.929 1.686,9.309 C1.59,9.786 1.447,10.245 1.305,10.708 C1.108,11.351 1.325,11.459 1.924,11.569 L4.022,12.361 C4.236,12.463 4.654,12.72 4.869,12.48 C5.059,12.265 5.021,11.873 5.148,11.618 C5.312,11.287 5.496,10.95 5.699,10.638 C6.148,9.94 7,9.43 7.577,8.828 C8.292,8.08 8.687,7.33 8.905,6.338 C9.195,5.017 8.528,3.722 7.207,3.193 L7.207,3.193 Z" class="si-glyph-fill" style="fill: rgb(29, 35, 245);"/>
        <g transform="translate(8.000000, 0.000000)">
          <path d="M0.977,9.289 L4.632,10.732 C4.632,10.732 3.878,13.685 1.646,12.826 C-0.586,11.965 0.977,9.289 0.977,9.289 L0.977,9.289 Z" class="si-glyph-fill" style="fill: rgb(29, 35, 245);"/>
          <path d="M6.19,0.217 C7.75,0.797 8.378,3.255 7.721,5.024 C7.45,5.751 7.018,6.403 6.575,7.038 C6.363,7.34 6.133,7.636 5.932,7.949 C5.685,8.339 5.479,8.75 5.271,9.16 C4.98,9.73 4.759,9.665 4.275,9.366 L2.31,8.593 C2.097,8.529 1.641,8.441 1.653,8.142 C1.664,7.872 1.949,7.622 2.031,7.368 C2.137,7.035 2.234,6.683 2.3,6.34 C2.452,5.572 2.204,4.679 2.208,3.899 C2.208,2.93 2.435,2.159 2.94,1.334 C3.617,0.228 4.932,-0.248 6.19,0.217 L6.19,0.217 Z" class="si-glyph-fill" style="fill: rgb(29, 35, 245);"/>
        </g>
      </g>
    </g>
  </g>
  <text style="fill: rgb(29, 35, 245); font-family: 'Berlin Sans FB'; font-size: 28.1236px; font-style: italic; font-weight: 700; line-height: 29.0113px; paint-order: stroke; stroke: rgb(255, 255, 255); stroke-linecap: round; stroke-miterlimit: 4.22; stroke-width: 3.65864px; white-space: pre; text-anchor: middle;" transform="matrix(0.9679970145225525, 0, 0, 0.9835450649261475, -2.3274669647216832, -5.705735206604004)" x="213.519" y="164.825">17</text>
  <text style="fill: rgb(255, 38, 46); font-family: 'Berlin Sans FB'; font-size: 28.1236px; font-style: italic; font-weight: 700; line-height: 29.0113px; paint-order: stroke; stroke: rgb(255, 255, 255); stroke-linecap: round; stroke-miterlimit: 4.22; stroke-width: 3.65864px; white-space: pre; text-anchor: middle;" transform="matrix(1.0264970064163208, 0, 0, 0.9670930504798889, 108.71633911132812, -3.5619869232177734)" x="213.519" y="164.825">17</text>
  <g id="g-12" stroke-width="0" transform="matrix(1, 0, 0, 1, 296.85253906249994, 235.79261779785153)"/>
  <g id="g-13" stroke-linecap="round" stroke-linejoin="round" transform="matrix(1, 0, 0, 1, 296.85253906249994, 235.79261779785153)"/>
  <g id="g-14" stroke-width="0" transform="matrix(1, 0, 0, 1, 172.42857360839844, 284.7557678222656)"/>
  <g id="g-15" stroke-linecap="round" stroke-linejoin="round" transform="matrix(1, 0, 0, 1, 172.42857360839844, 284.7557678222656)"/>
  <g id="SVGRepo_iconCarrier" transform="matrix(3.7937750816345215, 0, 0, 4.456221103668213, 284.25576782226557, 200.05761718749997)" style="">
    <path d="M 1.658 11.267 L 1.194 10.964 C 0.532 10.532 -0.259 10.3 -1.07 10.3 L -1.636 10.3 C -2.01 10.3 -2.387 10.321 -2.739 10.437 C -4.941 11.158 -6.455 13.795 -6.345 19.776 C -6.323 20.981 -6.018 22.313 -4.841 22.832 C -4.474 22.994 -4.044 23.102 -3.554 23.102 C -2.967 23.102 -2.5 22.948 -2.139 22.729 C -1.761 22.5 -1.429 22.203 -1.097 21.906 C -0.686 21.539 -0.275 21.172 0.22 20.935 C 0.76 20.676 1.359 20.542 1.967 20.542 L 3.813 20.542 C 4.42 20.542 5.02 20.676 5.559 20.935 C 6.055 21.172 6.465 21.539 6.876 21.906 C 7.208 22.203 7.541 22.5 7.919 22.729 C 8.28 22.948 8.746 23.102 9.334 23.102 C 9.824 23.102 10.254 22.994 10.62 22.832 C 11.798 22.313 12.103 20.981 12.125 19.776 C 12.235 13.795 10.72 11.158 8.518 10.437 C 8.166 10.321 7.789 10.3 7.416 10.3 L 6.849 10.3 C 6.039 10.3 5.248 10.532 4.585 10.964 L 4.122 11.267 C 3.761 11.503 3.331 11.629 2.89 11.629 C 2.449 11.629 2.018 11.503 1.658 11.267 Z" style="fill: rgb(141, 147, 165);"/>
    <path d="M 7.279 13.714 C 7.662 13.714 7.972 14 7.972 14.354 C 7.972 14.707 7.662 14.994 7.279 14.994 C 6.897 14.994 6.586 14.707 6.586 14.354 C 6.586 14 6.897 13.714 7.279 13.714 Z" fill="#1C274C" style=""/>
    <path d="M -1.269 13.927 C -0.886 13.927 -0.576 14.214 -0.576 14.567 L -0.576 15.207 L 0.118 15.207 C 0.501 15.207 0.811 15.494 0.811 15.847 C 0.811 16.201 0.501 16.487 0.118 16.487 L -0.576 16.487 L -0.576 17.128 C -0.576 17.481 -0.886 17.768 -1.269 17.768 C -1.651 17.768 -1.961 17.481 -1.961 17.128 L -1.961 16.487 L -2.655 16.487 C -3.038 16.487 -3.348 16.201 -3.348 15.847 C -3.348 15.494 -3.038 15.207 -2.655 15.207 L -1.961 15.207 L -1.961 14.567 C -1.961 14.214 -1.651 13.927 -1.269 13.927 Z" fill="#1C274C" style=""/>
    <path d="M 9.359 15.634 C 9.359 15.987 9.048 16.274 8.665 16.274 C 8.282 16.274 7.972 15.987 7.972 15.634 C 7.972 15.281 8.282 14.994 8.665 14.994 C 9.048 14.994 9.359 15.281 9.359 15.634 Z" fill="#1C274C" style=""/>
    <path d="M 5.893 16.274 C 6.276 16.274 6.586 15.987 6.586 15.634 C 6.586 15.281 6.276 14.994 5.893 14.994 C 5.51 14.994 5.2 15.281 5.2 15.634 C 5.2 15.987 5.51 16.274 5.893 16.274 Z" fill="#1C274C" style=""/>
    <path d="M 7.972 16.914 C 7.972 16.561 7.662 16.274 7.279 16.274 C 6.897 16.274 6.586 16.561 6.586 16.914 C 6.586 17.267 6.897 17.554 7.279 17.554 C 7.662 17.554 7.972 17.267 7.972 16.914 Z" fill="#1C274C" style=""/>
  </g>
  <text style="fill: rgb(141, 147, 165); font-family: 'Berlin Sans FB'; font-size: 28.1236px; font-style: italic; font-weight: 700; line-height: 29.0113px; paint-order: stroke; stroke: rgb(255, 255, 255); stroke-linecap: round; stroke-miterlimit: 4.22; stroke-width: 3.65864px; text-anchor: middle; white-space: pre;" transform="matrix(1.0264970064163208, 0, 0, 0.9670930504798889, 88.55506134033203, 139.295166015625)" x="213.519" y="164.825">17</text>
</svg>